HIERARCHY
ROOT Hips
{
    OFFSET 0.000000 97.120003 0.000000
    CHANNELS 6 Xposition Yposition Zposition Yrotation Xrotation Zrotation
    JOINT RightUpLeg
    {
        OFFSET -11.000000 -0.000000 0.000000
        CHANNELS 3 Yrotation Xrotation Zrotation
        JOINT RightLeg
        {
            OFFSET 0.000000 -45.062000 0.000000
            CHANNELS 3 Yrotation Xrotation Zrotation
            JOINT RightFoot
            {
                OFFSET 0.000000 -42.057999 0.000000
                CHANNELS 3 Yrotation Xrotation Zrotation
                End Site
                {
                    OFFSET 0.000000 -10.000000 15.120000
                }
            }
        }
    }
    JOINT LeftUpLeg
    {
        OFFSET 11.000000 -0.000000 0.000000
        CHANNELS 3 Yrotation Xrotation Zrotation
        JOINT LeftLeg
        {
            OFFSET 0.000000 -45.062000 0.000000
            CHANNELS 3 Yrotation Xrotation Zrotation
            JOINT LeftFoot
            {
                OFFSET 0.000000 -42.057999 0.000000
                CHANNELS 3 Yrotation Xrotation Zrotation
                End Site
                {
                    OFFSET 0.000000 -10.000000 15.120000
                }
            }
        }
    }
    JOINT Spine
    {
        OFFSET 0.000000 8.120000 0.000000
        CHANNELS 3 Yrotation Xrotation Zrotation
        JOINT Spine1
        {
            OFFSET 0.000000 17.980000 0.000000
            CHANNELS 3 Yrotation Xrotation Zrotation
            JOINT Spine2
            {
                OFFSET 0.000000 12.760000 0.000000
                CHANNELS 3 Yrotation Xrotation Zrotation
                JOINT Neck
                {
                    OFFSET 0.000000 19.139999 0.000000
                    CHANNELS 3 Yrotation Xrotation Zrotation
                    JOINT Neck1
                    {
                        OFFSET 0.000000 4.250000 0.000000
                        CHANNELS 3 Yrotation Xrotation Zrotation
                        JOINT Head
                        {
                            OFFSET 0.000000 4.250000 0.000000
                            CHANNELS 3 Yrotation Xrotation Zrotation
                            End Site
                            {
                                OFFSET 0.000000 19.120001 0.000000
                            }
                        }
                    }
                }
                JOINT RightShoulder
                {
                    OFFSET -2.900000 13.340000 0.000000
                    CHANNELS 3 Yrotation Xrotation Zrotation
                    JOINT RightArm
                    {
                        OFFSET -16.100000 0.000000 0.000000
                        CHANNELS 3 Yrotation Xrotation Zrotation
                        JOINT RightForeArm
                        {
                            OFFSET -28.000000 0.000000 0.000000
                            CHANNELS 3 Yrotation Xrotation Zrotation
                            JOINT RightHand
                            {
                                OFFSET -26.000000 0.000000 0.000000
                                CHANNELS 3 Yrotation Xrotation Zrotation
                                JOINT RightHandThumb1
                                {
                                    OFFSET -1.937000 -0.484000 2.518000
                                    CHANNELS 3 Yrotation Xrotation Zrotation
                                    JOINT RightHandThumb2
                                    {
                                        OFFSET -3.872000 0.000000 0.000000
                                        CHANNELS 3 Yrotation Xrotation Zrotation
                                        JOINT RightHandThumb3
                                        {
                                            OFFSET -2.690000 0.000000 0.000000
                                            CHANNELS 3 Yrotation Xrotation Zrotation
                                            End Site
                                            {
                                                OFFSET -2.537000 0.000000 0.000000
                                            }
                                        }
                                    }
                                }
                                JOINT RightInHandIndex
                                {
                                    OFFSET -3.389000 0.535000 2.080000
                                    CHANNELS 3 Yrotation Xrotation Zrotation
                                    JOINT RightHandIndex1
                                    {
                                        OFFSET -5.485000 -0.096000 1.051000
                                        CHANNELS 3 Yrotation Xrotation Zrotation
                                        JOINT RightHandIndex2
                                        {
                                            OFFSET -3.806000 0.000000 0.000000
                                            CHANNELS 3 Yrotation Xrotation Zrotation
                                            JOINT RightHandIndex3
                                            {
                                                OFFSET -2.158000 0.000000 0.000000
                                                CHANNELS 3 Yrotation Xrotation Zrotation
                                                End Site
                                                {
                                                    OFFSET -1.898000 0.000000 0.000000
                                                }
                                            }
                                        }
                                    }
                                }
                                JOINT RightInHandMiddle
                                {
                                    OFFSET -3.556000 0.544000 0.796000
                                    CHANNELS 3 Yrotation Xrotation Zrotation
                                    JOINT RightHandMiddle1
                                    {
                                        OFFSET -5.441000 -0.088000 0.330000
                                        CHANNELS 3 Yrotation Xrotation Zrotation
                                        JOINT RightHandMiddle2
                                        {
                                            OFFSET -4.153000 0.000000 0.000000
                                            CHANNELS 3 Yrotation Xrotation Zrotation
                                            JOINT RightHandMiddle3
                                            {
                                                OFFSET -2.603000 0.000000 0.000000
                                                CHANNELS 3 Yrotation Xrotation Zrotation
                                                End Site
                                                {
                                                    OFFSET -2.076000 0.000000 0.000000
                                                }
                                            }
                                        }
                                    }
                                }
                                JOINT RightInHandRing
                                {
                                    OFFSET -3.539000 0.566000 -0.136000
                                    CHANNELS 3 Yrotation Xrotation Zrotation
                                    JOINT RightHandRing1
                                    {
                                        OFFSET -4.873000 -0.023000 -0.504000
                                        CHANNELS 3 Yrotation Xrotation Zrotation
                                        JOINT RightHandRing2
                                        {
                                            OFFSET -3.619000 0.000000 0.000000
                                            CHANNELS 3 Yrotation Xrotation Zrotation
                                            JOINT RightHandRing3
                                            {
                                                OFFSET -2.511000 0.000000 0.000000
                                                CHANNELS 3 Yrotation Xrotation Zrotation
                                                End Site
                                                {
                                                    OFFSET -1.952000 0.000000 0.000000
                                                }
                                            }
                                        }
                                    }
                                }
                                JOINT RightInHandPinky
                                {
                                    OFFSET -3.324000 0.494000 -1.264000
                                    CHANNELS 3 Yrotation Xrotation Zrotation
                                    JOINT RightHandPinky1
                                    {
                                        OFFSET -4.354000 -0.023000 -1.147000
                                        CHANNELS 3 Yrotation Xrotation Zrotation
                                        JOINT RightHandPinky2
                                        {
                                            OFFSET -2.898000 0.000000 0.000000
                                            CHANNELS 3 Yrotation Xrotation Zrotation
                                            JOINT RightHandPinky3
                                            {
                                                OFFSET -1.831000 0.000000 0.000000
                                                CHANNELS 3 Yrotation Xrotation Zrotation
                                                End Site
                                                {
                                                    OFFSET -1.730000 0.000000 0.000000
                                                }
                                            }
                                        }
                                    }
                                }
                            }
                        }
                    }
                }
                JOINT LeftShoulder
                {
                    OFFSET 2.900000 13.340000 0.000000
                    CHANNELS 3 Yrotation Xrotation Zrotation
                    JOINT LeftArm
                    {
                        OFFSET 16.100000 0.000000 0.000000
                        CHANNELS 3 Yrotation Xrotation Zrotation
                        JOINT LeftForeArm
                        {
                            OFFSET 28.000000 0.000000 0.000000
                            CHANNELS 3 Yrotation Xrotation Zrotation
                            JOINT LeftHand
                            {
                                OFFSET 26.000000 0.000000 0.000000
                                CHANNELS 3 Yrotation Xrotation Zrotation
                                JOINT LeftHandThumb1
                                {
                                    OFFSET 1.937000 -0.484000 2.518000
                                    CHANNELS 3 Yrotation Xrotation Zrotation
                                    JOINT LeftHandThumb2
                                    {
                                        OFFSET 3.872000 0.000000 0.000000
                                        CHANNELS 3 Yrotation Xrotation Zrotation
                                        JOINT LeftHandThumb3
                                        {
                                            OFFSET 2.690000 0.000000 0.000000
                                            CHANNELS 3 Yrotation Xrotation Zrotation
                                            End Site
                                            {
                                                OFFSET 2.537000 0.000000 0.000000
                                            }
                                        }
                                    }
                                }
                                JOINT LeftInHandIndex
                                {
                                    OFFSET 3.389000 0.535000 2.080000
                                    CHANNELS 3 Yrotation Xrotation Zrotation
                                    JOINT LeftHandIndex1
                                    {
                                        OFFSET 5.485000 -0.096000 1.051000
                                        CHANNELS 3 Yrotation Xrotation Zrotation
                                        JOINT LeftHandIndex2
                                        {
                                            OFFSET 3.806000 0.000000 0.000000
                                            CHANNELS 3 Yrotation Xrotation Zrotation
                                            JOINT LeftHandIndex3
                                            {
                                                OFFSET 2.158000 0.000000 0.000000
                                                CHANNELS 3 Yrotation Xrotation Zrotation
                                                End Site
                                                {
                                                    OFFSET 1.898000 0.000000 0.000000
                                                }
                                            }
                                        }
                                    }
                                }
                                JOINT LeftInHandMiddle
                                {
                                    OFFSET 3.556000 0.544000 0.796000
                                    CHANNELS 3 Yrotation Xrotation Zrotation
                                    JOINT LeftHandMiddle1
                                    {
                                        OFFSET 5.441000 -0.088000 0.330000
                                        CHANNELS 3 Yrotation Xrotation Zrotation
                                        JOINT LeftHandMiddle2
                                        {
                                            OFFSET 4.153000 0.000000 0.000000
                                            CHANNELS 3 Yrotation Xrotation Zrotation
                                            JOINT LeftHandMiddle3
                                            {
                                                OFFSET 2.603000 0.000000 0.000000
                                                CHANNELS 3 Yrotation Xrotation Zrotation
                                                End Site
                                                {
                                                    OFFSET 2.076000 0.000000 0.000000
                                                }
                                            }
                                        }
                                    }
                                }
                                JOINT LeftInHandRing
                                {
                                    OFFSET 3.539000 0.566000 -0.136000
                                    CHANNELS 3 Yrotation Xrotation Zrotation
                                    JOINT LeftHandRing1
                                    {
                                        OFFSET 4.873000 -0.023000 -0.504000
                                        CHANNELS 3 Yrotation Xrotation Zrotation
                                        JOINT LeftHandRing2
                                        {
                                            OFFSET 3.619000 0.000000 0.000000
                                            CHANNELS 3 Yrotation Xrotation Zrotation
                                            JOINT LeftHandRing3
                                            {
                                                OFFSET 2.511000 0.000000 0.000000
                                                CHANNELS 3 Yrotation Xrotation Zrotation
                                                End Site
                                                {
                                                    OFFSET 1.952000 0.000000 0.000000
                                                }
                                            }
                                        }
                                    }
                                }
                                JOINT LeftInHandPinky
                                {
                                    OFFSET 3.324000 0.494000 -1.264000
                                    CHANNELS 3 Yrotation Xrotation Zrotation
                                    JOINT LeftHandPinky1
                                    {
                                        OFFSET 4.354000 -0.023000 -1.147000
                                        CHANNELS 3 Yrotation Xrotation Zrotation
                                        JOINT LeftHandPinky2
                                        {
                                            OFFSET 2.898000 0.000000 0.000000
                                            CHANNELS 3 Yrotation Xrotation Zrotation
                                            JOINT LeftHandPinky3
                                            {
                                                OFFSET 1.831000 0.000000 0.000000
                                                CHANNELS 3 Yrotation Xrotation Zrotation
                                                End Site
                                                {
                                                    OFFSET 1.730000 0.000000 0.000000
                                                }
                                            }
                                        }
                                    }
                                }
                            }
                        }
                    }
                }
            }
        }
    }
}
MOTION
Frames: 4
Frame Time: 0.010417
0.000000 97.119995 0.000000 0.000000 0.000000 0.000000 0.000000 0.000000 0.000000 0.000000 0.000000 0.000000 0.000000 0.000000 0.000000 0.000000 0.000000 0.000000 0.000000 0.000000 0.000000 0.000000 0.000000 0.000000 0.000000 0.000000 0.000000 0.000000 0.000000 0.000000 0.000000 0.000000 0.000000 0.000000 0.000000 0.000000 0.000000 0.000000 0.000000 0.000000 0.000000 0.000000 0.000000 0.000000 0.000000 0.000000 0.000000 0.000000 0.000000 0.000000 0.000000 0.000000 0.000000 0.000000 0.000000 0.000000 0.000000 0.000000 0.000000 0.000000 0.000000 0.000000 0.000000 0.000000 0.000000 0.000000 0.000000 0.000000 0.000000 0.000000 0.000000 0.000000 0.000000 0.000000 0.000000 0.000000 0.000000 0.000000 0.000000 0.000000 0.000000 0.000000 0.000000 0.000000 0.000000 0.000000 0.000000 0.000000 0.000000 0.000000 0.000000 0.000000 0.000000 0.000000 0.000000 0.000000 0.000000 0.000000 0.000000 0.000000 0.000000 0.000000 0.000000 0.000000 0.000000 0.000000 0.000000 0.000000 0.000000 0.000000 0.000000 0.000000 0.000000 0.000000 0.000000 0.000000 0.000000 0.000000 0.000000 0.000000 0.000000 0.000000 0.000000 0.000000 0.000000 0.000000 0.000000 0.000000 0.000000 0.000000 0.000000 0.000000 0.000000 0.000000 0.000000 0.000000 0.000000 0.000000 0.000000 0.000000 0.000000 0.000000 0.000000 0.000000 0.000000 0.000000 0.000000 0.000000 0.000000 0.000000 0.000000 0.000000 0.000000 0.000000 0.000000 0.000000 0.000000 0.000000 0.000000 0.000000 0.000000 0.000000 0.000000 0.000000 0.000000 0.000000 0.000000 0.000000 0.000000 0.000000 0.000000 0.000000 0.000000 0.000000 0.000000 0.000000 0.000000 0.000000 0.000000 0.000000
99.924583 96.922684 -92.653023 160.608047 -1.487784 -0.974981 14.517914 5.434999 -1.262285 174.320435 178.997681 -179.226364 0.096669 -5.070183 1.546049 18.733318 5.089239 1.578697 179.057419 -178.203903 179.517639 2.398298 -3.246602 -0.302626 2.065959 1.123433 -0.541731 2.065765 1.116214 -0.930164 9.672560 1.087427 -0.991975 180.000000 -178.081985 -178.799271 0.000000 -2.237693 1.243616 173.396820 -178.447983 -179.083176 2.176589 -3.162772 8.771296 15.045742 6.033825 80.559685 6.371662 -3.620061 -2.701170 173.675201 -163.317184 -169.944550 66.136894 39.029701 20.845490 180.000000 180.000000 -174.517181 180.000000 180.000000 -176.348450 0.000000 -0.000000 0.000000 15.000002 -0.000001 9.598889 180.000000 180.000000 -172.146362 180.000000 -180.000000 -174.502457 0.000000 -0.000000 0.000000 180.000000 -180.000000 -171.536072 0.000000 -0.000000 8.463923 0.000000 0.000000 5.636981 0.000000 -0.000000 0.000000 170.000000 -180.000000 -171.500168 0.000001 -0.000000 8.499830 180.000000 -180.000000 -174.339111 0.000000 -0.000000 0.000000 160.000015 180.000000 -172.047104 0.000000 0.000002 11.929338 0.000000 -0.000000 7.944946 173.058884 -176.031219 173.466415 178.651093 174.000748 106.845932 171.312943 -171.467621 -176.884567 179.855301 178.754166 173.298080 95.028130 121.366463 123.811684 0.000002 0.000002 -8.561354 180.000000 179.999985 174.298141 0.000000 -0.000000 0.000000 165.000015 180.000000 161.635712 0.000000 0.000000 -15.025323 0.000000 -0.000002 -10.517729 0.000000 -0.000000 0.000000 180.000000 -180.000000 164.829041 180.000000 180.000000 164.829025 180.000000 180.000000 169.896133 0.000000 -0.000000 0.000000 9.999999 0.000002 -13.988948 180.000000 -180.000000 166.011047 180.000000 -180.000000 170.683350 0.000000 -0.000000 0.000000 20.000002 -0.000000 -14.339352 180.000000 180.000000 158.490967 180.000000 180.000000 165.674988
99.924721 96.922997 -92.653954 160.605225 -1.485653 -0.975369 14.519506 5.434330 -1.262026 174.317871 178.998505 -179.225967 0.100694 -5.072560 1.544485 18.736105 5.087760 1.577770 179.056290 -178.203918 179.517853 2.398442 -3.248628 -0.301956 2.067270 1.121925 -0.541309 2.067076 1.114732 -0.929442 9.678604 1.086313 -0.991145 0.000001 -1.917980 1.202412 180.000000 -177.762360 -178.754639 173.392685 -178.448212 -179.082062 2.178638 -3.161582 8.777127 15.043217 6.022575 80.564987 6.372864 -3.614680 -2.703727 173.679764 -163.317444 -169.949142 66.131042 39.034519 20.845350 180.000000 179.999985 -174.514908 0.000000 -0.000000 3.653073 0.000000 -0.000000 0.000000 15.000004 -0.000001 9.596856 180.000000 180.000000 -172.148026 180.000000 180.000000 -174.503632 0.000000 -0.000000 0.000000 0.000000 -0.000000 8.464587 0.000000 -0.000000 8.464580 180.000000 180.000000 -174.362579 0.000000 -0.000000 0.000000 170.000000 180.000000 -171.499268 0.000000 -0.000000 8.500711 0.000000 -0.000000 5.661467 0.000000 -0.000000 0.000000 160.000015 -180.000000 -172.047882 180.000000 -179.999985 -168.071808 0.000000 0.000002 7.944183 173.056946 -176.036133 173.466415 178.648041 174.000473 106.831902 171.318405 -171.469345 -176.886627 179.853195 178.751526 173.296509 95.049606 121.367882 123.835197 0.000004 -0.000005 -8.562196 0.000002 0.000000 -5.702424 0.000000 -0.000000 0.000000 165.000015 180.000000 161.637222 180.000000 -180.000000 164.975891 0.000001 0.000000 -10.516867 0.000000 -0.000000 0.000000 0.000000 0.000000 -15.171042 0.000001 0.000000 -15.171034 0.000000 -0.000000 -10.103917 0.000000 -0.000000 0.000000 10.000001 -0.000000 -13.988967 0.000000 0.000000 -13.988953 180.000000 180.000000 170.683350 0.000000 -0.000000 0.000000 20.000002 -0.000002 -14.338118 0.000000 0.000000 -21.507179 0.000000 -0.000001 -14.323781
99.924835 96.923294 -92.654465 160.603561 -1.482429 -0.975703 14.521068 5.431087 -1.262478 174.315720 178.998627 -179.224930 0.102694 -5.073483 1.542879 18.736095 5.084092 1.576361 179.055695 -178.204971 179.517761 2.398560 -3.250498 -0.300704 2.068490 1.120042 -0.540721 2.068296 1.112875 -0.928433 9.684215 1.084831 -0.990025 180.000000 -178.082153 -178.795898 0.000001 -2.237489 1.247105 173.388031 -178.448547 -179.080917 2.182312 -3.161986 8.783321 15.038192 6.011988 80.567680 6.372549 -3.609888 -2.705326 173.682770 -163.317123 -169.952454 66.129074 39.036053 20.851635 179.999985 -179.999985 -174.510956 0.000004 0.000003 3.655707 0.000000 -0.000000 0.000000 15.000004 -0.000000 9.595205 180.000000 -180.000000 -172.149384 0.000000 -0.000000 5.495432 0.000000 -0.000000 0.000000 0.000001 0.000000 8.466928 0.000000 -0.000000 8.466932 180.000000 180.000000 -174.361023 0.000000 -0.000000 0.000000 170.000000 180.000000 -171.497055 180.000000 180.000000 -171.497040 180.000000 180.000000 -174.337021 0.000000 -0.000000 0.000000 160.000015 -180.000000 -172.040222 0.000004 0.000001 11.939663 0.000000 -0.000000 7.951823 173.056442 -176.040146 173.464310 178.646393 174.001038 106.819344 171.323822 -171.469086 -176.889175 179.852798 178.748337 173.294479 95.062378 121.368347 123.858284 180.000000 180.000000 171.441895 0.000002 0.000002 -5.699698 0.000000 -0.000000 0.000000 165.000015 -180.000000 161.638657 180.000000 -180.000000 164.977081 0.000000 0.000000 -10.516047 0.000000 -0.000000 0.000000 0.000000 0.000000 -15.171628 0.000001 0.000000 -15.171628 0.000000 -0.000000 -10.104311 0.000000 -0.000000 0.000000 9.999999 0.000000 -13.988591 180.000000 -180.000000 166.011429 0.000000 -0.000000 -9.316392 0.000000 -0.000000 0.000000 20.000002 0.000000 -14.336200 0.000000 0.000000 -21.504307 0.000000 0.000000 -14.321866
